<svg width="402" height="69" viewBox="0 0 402 69" fill="none" xmlns="http://www.w3.org/2000/svg">
<path d="M400.322 45.4062C400.534 38.7179 400.746 32.0296 400.959 25.3413C335.002 -0.470514 267.9 9.54772 200.805 19.5686C133.703 29.5869 66.5947 39.6049 0.637422 13.7906C0.591893 15.2238 0.546761 16.6445 0.501232 18.0776C20.5002 23.7258 65.7723 42.2338 168.731 36.1066C215.543 33.6948 258.257 28.9124 296.809 29.3578C335.371 29.4814 369.81 34.8491 400.322 45.4062Z" fill="#23ADAD"/>
<path d="M300.961 33.1516C355.625 35.6955 383.635 47.4729 398.146 52.374C398.105 53.1906 398.065 54.0072 398.025 54.8238C370.549 43.4314 342.751 38.4357 314.777 37.1339C276.557 35.3553 238.003 40.4691 199.442 45.5799C160.881 50.6934 122.334 55.8074 84.1139 54.0288C56.14 52.727 28.3473 47.7316 0.872398 36.3417C1.06152 32.5175 1.25052 28.6959 1.43965 24.8717C27.5945 35.0392 56.7936 40.8959 89.1552 42.4019C94.002 42.6274 98.9094 42.755 103.895 42.7856C142.182 43.3459 184.723 38.123 231.322 34.7134C258.362 32.514 281.37 32.2399 300.961 33.1516Z" fill="#23ADAD"/>
</svg>
