<svg  viewBox="0 0 911 657" fill="none" xmlns="http://www.w3.org/2000/svg">
<path fill-rule="evenodd" clip-rule="evenodd" d="M666.988 1.25352L11.4881 1.35395C-69.7503 28.7682 342.034 110.91 260.836 165.621C179.637 220.332 154.513 266.426 195.231 320.96C235.949 375.494 342.509 438.467 423.866 492.942C505.223 547.417 586.58 601.892 627.259 629.13L667.937 656.367L911.771 656.014L911.731 628.718C911.692 601.421 911.613 546.828 911.534 492.235C911.454 437.643 911.375 383.05 911.296 328.457C911.217 273.865 911.138 219.272 911.059 164.679C910.98 110.086 910.901 55.493 910.861 28.1966L910.822 0.900194L666.988 1.25352Z" fill="#23ADAD"/>
</svg>
